<svg xmlns="http://www.w3.org/2000/svg" xmlns:xlink="http://www.w3.org/1999/xlink" viewBox="0 0 500 500" width="500" height="500" preserveAspectRatio="xMidYMid meet" style="width: 100%; height: 100%; transform: translate3d(0px, 0px, 0px); content-visibility: visible;"><defs><clipPath id="__lottie_element_2"><rect width="500" height="500" x="0" y="0"/></clipPath></defs><g clip-path="url(#__lottie_element_2)"><g transform="matrix(-3.362950086593628,0,0,-3.362950086593628,28.5,38.5)" opacity="1" style="display: block;"><g opacity="1" transform="matrix(3.036370038986206,0,0,3.036370038986206,-17.466999053955078,-16.966999053955078)"><path fill="rgb(0,6,22)" fill-opacity="1" d=" M0,-3.5329999923706055 C1.9498627185821533,-3.5329999923706055 3.5329999923706055,-1.9498627185821533 3.5329999923706055,0 C3.5329999923706055,1.9498627185821533 1.9498627185821533,3.5329999923706055 0,3.5329999923706055 C-1.9498627185821533,3.5329999923706055 -3.5329999923706055,1.9498627185821533 -3.5329999923706055,0 C-3.5329999923706055,-1.9498627185821533 -1.9498627185821533,-3.5329999923706055 0,-3.5329999923706055z"/></g></g><g transform="matrix(-3.362950086593628,0,0,-3.362950086593628,348.5,38.5)" opacity="1" style="display: block;"><g opacity="1" transform="matrix(3.036370038986206,0,0,3.036370038986206,-17.466999053955078,-16.966999053955078)"><path fill="rgb(0,6,22)" fill-opacity="1" d=" M0,-3.5329999923706055 C1.9498627185821533,-3.5329999923706055 3.5329999923706055,-1.9498627185821533 3.5329999923706055,0 C3.5329999923706055,1.9498627185821533 1.9498627185821533,3.5329999923706055 0,3.5329999923706055 C-1.9498627185821533,3.5329999923706055 -3.5329999923706055,1.9498627185821533 -3.5329999923706055,0 C-3.5329999923706055,-1.9498627185821533 -1.9498627185821533,-3.5329999923706055 0,-3.5329999923706055z"/></g></g><g transform="matrix(-3.362950086593628,0,0,-3.362950086593628,188.5,38.5)" opacity="1" style="display: block;"><g opacity="1" transform="matrix(3.036370038986206,0,0,3.036370038986206,-17.466999053955078,-16.966999053955078)"><path fill="rgb(0,6,22)" fill-opacity="1" d=" M0,-3.5329999923706055 C1.9498627185821533,-3.5329999923706055 3.5329999923706055,-1.9498627185821533 3.5329999923706055,0 C3.5329999923706055,1.9498627185821533 1.9498627185821533,3.5329999923706055 0,3.5329999923706055 C-1.9498627185821533,3.5329999923706055 -3.5329999923706055,1.9498627185821533 -3.5329999923706055,0 C-3.5329999923706055,-1.9498627185821533 -1.9498627185821533,-3.5329999923706055 0,-3.5329999923706055z"/></g></g><g transform="matrix(-3.362950086593628,0,0,-3.362950086593628,28.5,198.5)" opacity="1" style="display: block;"><g opacity="1" transform="matrix(3.036370038986206,0,0,3.036370038986206,-17.466999053955078,-16.966999053955078)"><path fill="rgb(0,6,22)" fill-opacity="1" d=" M0,-3.5329999923706055 C1.9498627185821533,-3.5329999923706055 3.5329999923706055,-1.9498627185821533 3.5329999923706055,0 C3.5329999923706055,1.9498627185821533 1.9498627185821533,3.5329999923706055 0,3.5329999923706055 C-1.9498627185821533,3.5329999923706055 -3.5329999923706055,1.9498627185821533 -3.5329999923706055,0 C-3.5329999923706055,-1.9498627185821533 -1.9498627185821533,-3.5329999923706055 0,-3.5329999923706055z"/></g></g><g transform="matrix(-3.362950086593628,0,0,-3.362950086593628,348.5,198.5)" opacity="1" style="display: block;"><g opacity="1" transform="matrix(3.036370038986206,0,0,3.036370038986206,-17.466999053955078,-16.966999053955078)"><path fill="rgb(0,6,22)" fill-opacity="1" d=" M0,-3.5329999923706055 C1.9498627185821533,-3.5329999923706055 3.5329999923706055,-1.9498627185821533 3.5329999923706055,0 C3.5329999923706055,1.9498627185821533 1.9498627185821533,3.5329999923706055 0,3.5329999923706055 C-1.9498627185821533,3.5329999923706055 -3.5329999923706055,1.9498627185821533 -3.5329999923706055,0 C-3.5329999923706055,-1.9498627185821533 -1.9498627185821533,-3.5329999923706055 0,-3.5329999923706055z"/></g></g><g transform="matrix(-3.362950086593628,0,0,-3.362950086593628,188.5,198.5)" opacity="1" style="display: block;"><g opacity="1" transform="matrix(3.036370038986206,0,0,3.036370038986206,-17.466999053955078,-16.966999053955078)"><path fill="rgb(0,6,22)" fill-opacity="1" d=" M0,-3.5329999923706055 C1.9498627185821533,-3.5329999923706055 3.5329999923706055,-1.9498627185821533 3.5329999923706055,0 C3.5329999923706055,1.9498627185821533 1.9498627185821533,3.5329999923706055 0,3.5329999923706055 C-1.9498627185821533,3.5329999923706055 -3.5329999923706055,1.9498627185821533 -3.5329999923706055,0 C-3.5329999923706055,-1.9498627185821533 -1.9498627185821533,-3.5329999923706055 0,-3.5329999923706055z"/></g></g><g transform="matrix(-3.362950086593628,0,0,-3.362950086593628,28.5,358.5)" opacity="1" style="display: block;"><g opacity="1" transform="matrix(3.036370038986206,0,0,3.036370038986206,-17.466999053955078,-16.966999053955078)"><path fill="rgb(0,6,22)" fill-opacity="1" d=" M0,-3.5329999923706055 C1.9498627185821533,-3.5329999923706055 3.5329999923706055,-1.9498627185821533 3.5329999923706055,0 C3.5329999923706055,1.9498627185821533 1.9498627185821533,3.5329999923706055 0,3.5329999923706055 C-1.9498627185821533,3.5329999923706055 -3.5329999923706055,1.9498627185821533 -3.5329999923706055,0 C-3.5329999923706055,-1.9498627185821533 -1.9498627185821533,-3.5329999923706055 0,-3.5329999923706055z"/></g></g><g transform="matrix(-3.362950086593628,0,0,-3.362950086593628,348.5,358.5)" opacity="1" style="display: block;"><g opacity="1" transform="matrix(3.036370038986206,0,0,3.036370038986206,-17.466999053955078,-16.966999053955078)"><path fill="rgb(0,6,22)" fill-opacity="1" d=" M0,-3.5329999923706055 C1.9498627185821533,-3.5329999923706055 3.5329999923706055,-1.9498627185821533 3.5329999923706055,0 C3.5329999923706055,1.9498627185821533 1.9498627185821533,3.5329999923706055 0,3.5329999923706055 C-1.9498627185821533,3.5329999923706055 -3.5329999923706055,1.9498627185821533 -3.5329999923706055,0 C-3.5329999923706055,-1.9498627185821533 -1.9498627185821533,-3.5329999923706055 0,-3.5329999923706055z"/></g></g><g transform="matrix(-3.362950086593628,0,0,-3.362950086593628,188.5,358.5)" opacity="1" style="display: block;"><g opacity="1" transform="matrix(3.036370038986206,0,0,3.036370038986206,-17.466999053955078,-16.966999053955078)"><path fill="rgb(0,6,22)" fill-opacity="1" d=" M0,-3.5329999923706055 C1.9498627185821533,-3.5329999923706055 3.5329999923706055,-1.9498627185821533 3.5329999923706055,0 C3.5329999923706055,1.9498627185821533 1.9498627185821533,3.5329999923706055 0,3.5329999923706055 C-1.9498627185821533,3.5329999923706055 -3.5329999923706055,1.9498627185821533 -3.5329999923706055,0 C-3.5329999923706055,-1.9498627185821533 -1.9498627185821533,-3.5329999923706055 0,-3.5329999923706055z"/></g></g></g></svg>